<svg width="86" height="86" viewBox="0 0 86 86" fill="none" xmlns="http://www.w3.org/2000/svg">
<g clip-path="url(#clip0_31_32)">
<path d="M78.8333 18.5617L37.9475 59.4833L22.7541 44.29L27.8066 39.2375L37.9475 49.3783L73.7808 13.545L78.8333 18.5617ZM70.9141 36.6217C71.38 38.6642 71.6666 40.8142 71.6666 43C71.6666 58.8383 58.8383 71.6667 43 71.6667C27.1616 71.6667 14.3333 58.8383 14.3333 43C14.3333 27.1617 27.1616 14.3333 43 14.3333C48.6616 14.3333 53.8933 15.9817 58.3366 18.8125L63.4966 13.6525C57.6916 9.5675 50.6325 7.16667 43 7.16667C23.22 7.16667 7.16663 23.22 7.16663 43C7.16663 62.78 23.22 78.8333 43 78.8333C62.78 78.8333 78.8333 62.78 78.8333 43C78.8333 38.7358 78.045 34.6508 76.6833 30.8525L70.9141 36.6217Z" fill="white"/>
</g>
<defs>
<clipPath id="clip0_31_32">
<rect width="86" height="86" fill="white"/>
</clipPath>
</defs>
</svg>
